<?xml version="1.0" encoding="utf-8"?>
<!-- Generator: Adobe Illustrator 16.0.0, SVG Export Plug-In . SVG Version: 6.00 Build 0)  -->
<!DOCTYPE svg PUBLIC "-//W3C//DTD SVG 1.0//EN" "http://www.w3.org/TR/2001/REC-SVG-20010904/DTD/svg10.dtd">
<svg version="1.0" xmlns="http://www.w3.org/2000/svg" xmlns:xlink="http://www.w3.org/1999/xlink" x="0px" y="0px"
	 width="191.933px" height="191.759px" viewBox="0 0 191.933 191.759" enable-background="new 0 0 191.933 191.759"
	 xml:space="preserve">
<g id="Layer_1">
	<path d="M95.966,0C43.05,0,0,43.011,0,95.879c0,52.868,43.05,95.88,95.966,95.88c25.593,0,49.682-9.985,67.83-28.114
		c18.146-18.13,28.139-42.196,28.137-67.766C191.933,43.011,148.883,0,95.966,0z M95.966,176.925
		c-44.734,0-81.129-36.357-81.129-81.046c0-44.694,36.395-81.055,81.129-81.055c44.732,0,81.124,36.361,81.124,81.055
		C177.09,140.567,140.698,176.925,95.966,176.925z M140.412,95.506c0,4.085-3.328,7.494-7.418,7.494h-29.069v29.871
		c0,4.086-3.907,7.411-7.998,7.411c-4.093,0-8.002-3.325-8.002-7.411V103H58.938c-4.094,0-7.424-3.409-7.424-7.494
		c0-4.091,3.33-7.506,7.424-7.506h28.986V58.883c0-4.09,3.909-7.417,8.002-7.417c4.09,0,7.998,3.327,7.998,7.417V88h29.069
		C137.084,88,140.412,91.415,140.412,95.506z"/>
</g>
<g id="Layer_4">
</g>
<g id="Layer_3">
</g>
<g id="Layer_2">
</g>
</svg>
