<?xml version="1.0" encoding="utf-8"?>
<!-- Generator: Adobe Illustrator 16.0.0, SVG Export Plug-In . SVG Version: 6.00 Build 0)  -->
<!DOCTYPE svg PUBLIC "-//W3C//DTD SVG 1.0//EN" "http://www.w3.org/TR/2001/REC-SVG-20010904/DTD/svg10.dtd">
<svg version="1.0" xmlns="http://www.w3.org/2000/svg" xmlns:xlink="http://www.w3.org/1999/xlink" x="0px" y="0px"
	 width="191.933px" height="191.759px" viewBox="0 0 191.933 191.759" enable-background="new 0 0 191.933 191.759"
	 xml:space="preserve">
<g id="Layer_1">
</g>
<g id="Layer_4">
</g>
<g id="Layer_3">
</g>
<g id="Layer_2">
	<path d="M146.975,35.976V141.08c0,27.778-22.592,50.381-50.363,50.381c-27.771,0-50.375-22.603-50.375-50.381V64.761
		c0-3.973,3.212-7.194,7.195-7.194c3.97,0,7.182,3.222,7.182,7.194v76.319c0,19.838,16.154,35.991,35.998,35.991
		c19.831,0,35.985-16.153,35.985-35.991V35.976c0-11.904-9.687-21.587-21.591-21.587c-11.92,0-21.601,9.683-21.601,21.587v90.75
		c-0.006,1.919,0.733,3.743,2.104,5.102c2.73,2.73,7.468,2.73,10.205,0c1.354-1.358,2.099-3.183,2.093-5.137V50.366
		c0-3.973,3.219-7.188,7.199-7.188c3.971,0,7.184,3.216,7.184,7.188v76.29c0.036,5.794-2.199,11.23-6.276,15.331
		c-8.154,8.189-22.449,8.189-30.604,0c-4.077-4.101-6.318-9.537-6.294-15.295V35.976C75.015,16.13,91.164,0,111.006,0
		C130.851,0,146.975,16.13,146.975,35.976z"/>
</g>
</svg>
