<?xml version="1.0" encoding="utf-8"?>
<!-- Generator: Adobe Illustrator 16.0.0, SVG Export Plug-In . SVG Version: 6.00 Build 0)  -->
<!DOCTYPE svg PUBLIC "-//W3C//DTD SVG 1.0//EN" "http://www.w3.org/TR/2001/REC-SVG-20010904/DTD/svg10.dtd">
<svg version="1.0" xmlns="http://www.w3.org/2000/svg" xmlns:xlink="http://www.w3.org/1999/xlink" x="0px" y="0px"
	 width="191.933px" height="191.759px" viewBox="0 0 191.933 191.759" enable-background="new 0 0 191.933 191.759"
	 xml:space="preserve">
<g id="Layer_1">
</g>
<g id="Layer_4">
</g>
<g id="Layer_3">
	<g>
		<path d="M163.736,51.297c-3.502,0-6.336,2.833-6.336,6.335c0,0.378,0,30.563-0.019,31.894
			c-0.552,32.914-28.102,59.698-61.416,59.698c-33.461,0-61.01-26.9-61.418-59.983c-0.016-1.144-0.016-31.335-0.016-31.608
			c0-3.501-2.831-6.335-6.335-6.335c-3.5,0-6.334,2.833-6.334,6.335c0,30.948,0.012,31.789,0.012,31.789
			c0.472,37.844,30.317,68.958,67.755,72.158v16.601H61.8c-3.501,0-6.336,2.831-6.336,6.336c0,3.5,2.835,6.334,6.336,6.334h68.327
			c3.504,0,6.335-2.834,6.335-6.334c0-3.505-2.831-6.336-6.335-6.336h-27.825v-16.601c37.273-3.191,67.12-34.157,67.744-71.639
			c0.007-0.21,0.024-0.531,0.024-32.308C170.07,54.13,167.236,51.297,163.736,51.297z"/>
		<path d="M95.966,124.878c20.08,0,36.354-16.099,36.354-35.977v-53.22c0-19.86-16.273-35.965-36.354-35.965
			c-20.086,0-36.357,16.104-36.357,35.965v53.22C59.608,108.779,75.88,124.878,95.966,124.878z"/>
	</g>
</g>
<g id="Layer_2">
</g>
</svg>
