<?xml version="1.0" encoding="utf-8"?>
<!-- Generator: Adobe Illustrator 16.0.0, SVG Export Plug-In . SVG Version: 6.00 Build 0)  -->
<!DOCTYPE svg PUBLIC "-//W3C//DTD SVG 1.0//EN" "http://www.w3.org/TR/2001/REC-SVG-20010904/DTD/svg10.dtd">
<svg version="1.0" xmlns="http://www.w3.org/2000/svg" xmlns:xlink="http://www.w3.org/1999/xlink" x="0px" y="0px"
	 width="191.933px" height="191.759px" viewBox="0 0 191.933 191.759" enable-background="new 0 0 191.933 191.759"
	 xml:space="preserve">
<g id="Layer_1">
</g>
<g id="Layer_4">
	<path d="M95.968,0.329c-37.035,0-67.058,30.023-67.058,67.062c0,2.833,0.222,5.603,0.558,8.336
		c5.741,52.382,62.153,112.757,62.153,112.757c1.003,1.125,1.964,1.82,2.896,2.324l0.05,0.025l1.88,0.596l1.88-0.596l0.046-0.025
		c0.936-0.504,1.893-1.225,2.899-2.324c0,0,55.607-60.479,61.188-112.874c0.341-2.704,0.562-5.444,0.562-8.23
		C163.022,30.353,132.999,0.329,95.968,0.329z M95.968,110.527c-23.788,0-43.132-19.355-43.132-43.136
		c0-23.779,19.344-43.136,43.132-43.136c23.784,0,43.128,19.356,43.128,43.136C139.097,91.172,119.752,110.527,95.968,110.527z"/>
</g>
<g id="Layer_3">
</g>
<g id="Layer_2">
</g>
</svg>
